<svg viewBox="0 0 228 265" xmlns="http://www.w3.org/2000/svg">
<path d="M74.7863 30L64.2023 3.36H58.8383L48.1463 30H55.4543L56.8583 26.148H66.1103L67.4063 30H74.7863ZM64.3103 20.748H58.7303L61.4663 11.64L61.5743 11.676L64.3103 20.748ZM83.2035 30V18.984C83.2035 16.716 84.3555 15.384 87.9195 15.348V9.336C85.6155 9.336 83.9595 10.02 82.9155 12.144H82.8435V10.02H77.2275V30H83.2035ZM110.22 17.724C109.104 12.648 104.82 9.336 99.5644 9.336C93.8044 9.336 89.0884 13.98 89.0884 19.956C89.0884 25.86 93.7684 30.648 99.6724 30.648C104.784 30.648 109.068 27.408 110.256 22.404H104.172C103.272 24.132 101.868 25.068 99.8524 25.068C97.0804 25.068 95.1004 22.908 95.1004 19.992C95.1004 17.184 96.9724 14.916 99.7084 14.916C101.76 14.916 103.308 15.852 104.172 17.724H110.22ZM131.521 30V17.436C131.521 12.216 128.749 9.336 124.177 9.336C121.801 9.336 119.857 10.308 118.993 11.928V3.36H113.017V30H118.993V18.768C118.993 16.284 120.073 14.952 122.341 14.952C124.537 14.952 125.545 16.428 125.545 19.02V30H131.521ZM155.564 21.828C155.672 21.288 155.708 20.82 155.708 20.244C155.708 14.052 151.136 9.336 145.16 9.336C139.292 9.336 134.684 14.304 134.684 20.064C134.684 26.004 139.508 30.648 145.268 30.648C149.48 30.648 153.116 28.092 155.024 23.736H148.904C147.932 24.996 146.888 25.608 145.268 25.608C142.82 25.608 140.912 24.096 140.588 21.828H155.564ZM140.66 17.796C141.128 15.672 143 14.376 145.16 14.376C147.464 14.376 149.264 15.744 149.732 17.796H140.66ZM164.977 30V18.984C164.977 16.716 166.129 15.384 169.693 15.348V9.336C167.389 9.336 165.733 10.02 164.689 12.144H164.617V10.02H159.001V30H164.977ZM182.016 36.66L192.024 10.02H185.688L181.872 21.612H181.8L177.804 10.02H171.432L178.848 28.992L175.68 36.66H182.016ZM87.1817 54.136C87.1457 50.572 85.7777 48.448 82.9337 46.972C81.5297 46.252 79.9817 45.856 78.2177 45.856C73.3217 45.856 68.9297 49.168 68.9297 53.704C68.9297 57.16 70.9097 59.464 75.2657 61.228C77.6777 62.2 80.6297 63.136 80.6297 65.26C80.6297 66.7 79.4777 67.816 78.0737 67.816C76.3817 67.816 75.3017 66.376 75.2657 64.18H68.4977V64.756C68.4977 70.48 72.3137 73.504 78.1097 73.504C83.8697 73.504 87.3977 70.48 87.3977 65.332C87.3977 61.84 85.9217 59.716 80.0537 57.196C77.1377 55.936 75.6977 55.216 75.6977 53.632C75.6977 52.444 76.7777 51.544 78.0377 51.544C79.3697 51.544 80.1617 52.228 80.4497 54.136H87.1817ZM111.082 60.724C109.966 55.648 105.682 52.336 100.426 52.336C94.6657 52.336 89.9497 56.98 89.9497 62.956C89.9497 68.86 94.6297 73.648 100.534 73.648C105.646 73.648 109.93 70.408 111.118 65.404H105.034C104.134 67.132 102.73 68.068 100.714 68.068C97.9417 68.068 95.9617 65.908 95.9617 62.992C95.9617 60.184 97.8337 57.916 100.57 57.916C102.622 57.916 104.17 58.852 105.034 60.724H111.082ZM134.998 62.92C134.998 56.872 130.246 52.372 124.234 52.372C118.258 52.372 113.47 56.8 113.47 62.992C113.47 69.112 118.15 73.612 124.234 73.612C130.246 73.612 134.998 69.184 134.998 62.92ZM124.234 68.032C121.534 68.032 119.446 65.728 119.446 62.992C119.446 60.256 121.57 57.952 124.198 57.952C127.006 57.952 129.022 60.328 129.022 62.992C129.022 65.656 127.042 68.032 124.234 68.032ZM144.323 73V61.984C144.323 59.716 145.475 58.384 149.039 58.348V52.336C146.735 52.336 145.079 53.02 144.035 55.144H143.963V53.02H138.347V73H144.323ZM170.98 64.828C171.088 64.288 171.124 63.82 171.124 63.244C171.124 57.052 166.552 52.336 160.576 52.336C154.708 52.336 150.1 57.304 150.1 63.064C150.1 69.004 154.924 73.648 160.684 73.648C164.896 73.648 168.532 71.092 170.44 66.736H164.32C163.348 67.996 162.304 68.608 160.684 68.608C158.236 68.608 156.328 67.096 156.004 64.828H170.98ZM156.076 60.796C156.544 58.672 158.416 57.376 160.576 57.376C162.88 57.376 164.68 58.744 165.148 60.796H156.076ZM93.8086 97.136C93.7726 93.572 92.4046 91.448 89.5606 89.972C88.1566 89.252 86.6086 88.856 84.8446 88.856C79.9486 88.856 75.5566 92.168 75.5566 96.704C75.5566 100.16 77.5366 102.464 81.8926 104.228C84.3046 105.2 87.2566 106.136 87.2566 108.26C87.2566 109.7 86.1046 110.816 84.7006 110.816C83.0086 110.816 81.9286 109.376 81.8926 107.18H75.1246V107.756C75.1246 113.48 78.9406 116.504 84.7366 116.504C90.4966 116.504 94.0246 113.48 94.0246 108.332C94.0246 104.84 92.5486 102.716 86.6806 100.196C83.7646 98.936 82.3246 98.216 82.3246 96.632C82.3246 95.444 83.4046 94.544 84.6646 94.544C85.9966 94.544 86.7886 95.228 87.0766 97.136H93.8086ZM115.525 116V103.436C115.525 98.216 112.753 95.336 108.181 95.336C105.805 95.336 103.861 96.308 102.997 97.928V89.36H97.0213V116H102.997V104.768C102.997 102.284 104.077 100.952 106.345 100.952C108.541 100.952 109.549 102.428 109.549 105.02V116H115.525ZM139.567 107.828C139.675 107.288 139.711 106.82 139.711 106.244C139.711 100.052 135.139 95.336 129.163 95.336C123.295 95.336 118.687 100.304 118.687 106.064C118.687 112.004 123.511 116.648 129.271 116.648C133.483 116.648 137.119 114.092 139.027 109.736H132.907C131.935 110.996 130.891 111.608 129.271 111.608C126.823 111.608 124.915 110.096 124.591 107.828H139.567ZM124.663 103.796C125.131 101.672 127.003 100.376 129.163 100.376C131.467 100.376 133.267 101.744 133.735 103.796H124.663ZM162.841 107.828C162.949 107.288 162.985 106.82 162.985 106.244C162.985 100.052 158.413 95.336 152.437 95.336C146.569 95.336 141.961 100.304 141.961 106.064C141.961 112.004 146.785 116.648 152.545 116.648C156.757 116.648 160.393 114.092 162.301 109.736H156.181C155.209 110.996 154.165 111.608 152.545 111.608C150.097 111.608 148.189 110.096 147.865 107.828H162.841ZM147.937 103.796C148.405 101.672 150.277 100.376 152.437 100.376C154.741 100.376 156.541 101.744 157.009 103.796H147.937ZM173.478 116V100.556H176.358V96.02H173.478V89.36H167.502V96.02H164.55V100.556H167.502V116H173.478Z" fill="black"/>
<g filter="url(#filter0_ddddii_96_61)">
<ellipse cx="47.3421" cy="185.5" rx="25.3421" ry="53.5" fill="url(#paint0_linear_96_61)"/>
</g>
<ellipse cx="47.3422" cy="185.5" rx="20.2737" ry="42.8" fill="#4E4E4E"/>
<ellipse cx="47.342" cy="185.5" rx="15.2053" ry="32.1" fill="#5F81F9"/>
<ellipse cx="47.342" cy="185.5" rx="10.1368" ry="21.4" fill="#F95757"/>
<ellipse cx="47.3421" cy="185.5" rx="5.06842" ry="10.7" fill="#F6F95F"/>
<rect width="10.7028" height="103.714" transform="matrix(0.627409 0.56142 -0.536399 0.924393 160.933 136.885)" fill="#7F7F7F"/>
<rect width="10.7028" height="103.716" transform="matrix(0.987913 -0.56142 -0.0571817 0.924394 159.042 142.894)" fill="#7F7F7F"/>
<rect width="8.6587" height="11.7098" transform="matrix(1 0 -0.305695 0.952129 160.953 136.885)" fill="#7F7F7F"/>
<path d="M117.765 211.469L107.169 238.766H101.545L117.765 211.469Z" fill="#7F7F7F"/>
<path d="M108.245 228.385H115.461L112.008 238.766H104.913L108.245 228.385Z" fill="#7F7F7F"/>
<path d="M164.201 224.157L163.659 238.766H157.827L164.201 224.157Z" fill="#7F7F7F"/>
<path d="M156.324 228.771H163.441L160.232 238.766H153.114L156.324 228.771Z" fill="#7F7F7F"/>
<rect x="47" y="181" width="155.106" height="8" fill="#7F7F7F"/>
<path d="M181 185L186.875 176.34V193.66L181 185Z" fill="#7F7F7F"/>
<rect x="186.875" y="176" width="39.166" height="18" fill="#7F7F7F"/>
<path d="M220.167 185L226.042 176.34V193.66L220.167 185Z" fill="#F2F5FA"/>
<path d="M140.377 172.309H150.576L129.884 207.978H119.679L140.377 172.309Z" fill="#FF6D4D"/>
<path d="M166.351 189L163.657 238.765H153.112L156.141 189H166.351Z" fill="#69B7FF"/>
<path d="M166.788 181L170 137L158 159L156.5 181H166.788Z" fill="#E4EE77"/>
<defs>
<filter id="filter0_ddddii_96_61" x="0.712632" y="110.713" width="97.3137" height="153.629" filterUnits="userSpaceOnUse" color-interpolation-filters="sRGB">
<feFlood flood-opacity="0" result="BackgroundImageFix"/>
<feColorMatrix in="SourceAlpha" type="matrix" values="0 0 0 0 0 0 0 0 0 0 0 0 0 0 0 0 0 0 127 0" result="hardAlpha"/>
<feOffset dx="7.09579" dy="7.09579"/>
<feGaussianBlur stdDeviation="9.12316"/>
<feColorMatrix type="matrix" values="0 0 0 0 0.584314 0 0 0 0 0.584314 0 0 0 0 0.584314 0 0 0 0.9 0"/>
<feBlend mode="normal" in2="BackgroundImageFix" result="effect1_dropShadow_96_61"/>
<feColorMatrix in="SourceAlpha" type="matrix" values="0 0 0 0 0 0 0 0 0 0 0 0 0 0 0 0 0 0 127 0" result="hardAlpha"/>
<feOffset dx="-7.09579" dy="-7.09579"/>
<feGaussianBlur stdDeviation="7.09579"/>
<feColorMatrix type="matrix" values="0 0 0 0 1 0 0 0 0 1 0 0 0 0 1 0 0 0 0.9 0"/>
<feBlend mode="normal" in2="effect1_dropShadow_96_61" result="effect2_dropShadow_96_61"/>
<feColorMatrix in="SourceAlpha" type="matrix" values="0 0 0 0 0 0 0 0 0 0 0 0 0 0 0 0 0 0 127 0" result="hardAlpha"/>
<feOffset dx="7.09579" dy="-7.09579"/>
<feGaussianBlur stdDeviation="7.09579"/>
<feColorMatrix type="matrix" values="0 0 0 0 0.584314 0 0 0 0 0.584314 0 0 0 0 0.584314 0 0 0 0.2 0"/>
<feBlend mode="normal" in2="effect2_dropShadow_96_61" result="effect3_dropShadow_96_61"/>
<feColorMatrix in="SourceAlpha" type="matrix" values="0 0 0 0 0 0 0 0 0 0 0 0 0 0 0 0 0 0 127 0" result="hardAlpha"/>
<feOffset dx="-7.09579" dy="7.09579"/>
<feGaussianBlur stdDeviation="7.09579"/>
<feColorMatrix type="matrix" values="0 0 0 0 0.584314 0 0 0 0 0.584314 0 0 0 0 0.584314 0 0 0 0.2 0"/>
<feBlend mode="normal" in2="effect3_dropShadow_96_61" result="effect4_dropShadow_96_61"/>
<feBlend mode="normal" in="SourceGraphic" in2="effect4_dropShadow_96_61" result="shape"/>
<feColorMatrix in="SourceAlpha" type="matrix" values="0 0 0 0 0 0 0 0 0 0 0 0 0 0 0 0 0 0 127 0" result="hardAlpha"/>
<feOffset dx="-1.01368" dy="-1.01368"/>
<feGaussianBlur stdDeviation="1.01368"/>
<feComposite in2="hardAlpha" operator="arithmetic" k2="-1" k3="1"/>
<feColorMatrix type="matrix" values="0 0 0 0 0.584314 0 0 0 0 0.584314 0 0 0 0 0.584314 0 0 0 0.5 0"/>
<feBlend mode="normal" in2="shape" result="effect5_innerShadow_96_61"/>
<feColorMatrix in="SourceAlpha" type="matrix" values="0 0 0 0 0 0 0 0 0 0 0 0 0 0 0 0 0 0 127 0" result="hardAlpha"/>
<feOffset dx="1.01368" dy="1.01368"/>
<feGaussianBlur stdDeviation="1.01368"/>
<feComposite in2="hardAlpha" operator="arithmetic" k2="-1" k3="1"/>
<feColorMatrix type="matrix" values="0 0 0 0 1 0 0 0 0 1 0 0 0 0 1 0 0 0 0.3 0"/>
<feBlend mode="normal" in2="effect5_innerShadow_96_61" result="effect6_innerShadow_96_61"/>
</filter>
<linearGradient id="paint0_linear_96_61" x1="22" y1="132" x2="104.792" y2="171.217" gradientUnits="userSpaceOnUse">
<stop stop-color="white"/>
<stop offset="1" stop-color="#F2F2F2"/>
</linearGradient>
</defs>
</svg>
